<svg width="56" height="48" viewBox="0 0 56 48" fill="none" xmlns="http://www.w3.org/2000/svg">
<path d="M42.1056 22.5528C42.4547 21.8545 43.4171 21.8178 43.8308 22.4425L43.8944 22.5528L55.8944 46.5528C56.2094 47.1827 55.792 47.918 55.1151 47.9936L55 48H51C50.4477 48 50 47.5523 50 47C50 46.4872 50.386 46.0645 50.8834 46.0067L51 46H53.381L43 25.236L32.618 46H47C47.5128 46 47.9355 46.386 47.9933 46.8834L48 47C48 47.5128 47.614 47.9355 47.1166 47.9933L47 48H31C30.2958 48 29.8247 47.2979 30.0598 46.6586L30.1056 46.5528L42.1056 22.5528Z" fill="#E1000F"/>
<path d="M43 32C43.5523 32 44 32.4477 44 33V39C44 39.5523 43.5523 40 43 40C42.4477 40 42 39.5523 42 39V33C42 32.4477 42.4477 32 43 32Z" fill="#E1000F"/>
<path d="M44 43C44 42.4477 43.5523 42 43 42C42.4477 42 42 42.4477 42 43C42 43.5523 42.4477 44 43 44C43.5523 44 44 43.5523 44 43Z" fill="#E1000F"/>
<path d="M55.9933 0.883379C55.9355 0.38604 55.5128 0 55 0H1L0.883379 0.00672773C0.38604 0.0644928 0 0.487164 0 1V47L0.00672773 47.1166C0.0644928 47.614 0.487164 48 1 48H25L25.1166 47.9933C25.614 47.9355 26 47.5128 26 47L25.9933 46.8834C25.9355 46.386 25.5128 46 25 46H2V10H39L39.1166 9.99327C39.614 9.93551 40 9.51284 40 9C40 8.44771 39.5523 8 39 8H2V2H54V8H45L44.8834 8.00673C44.386 8.06449 44 8.48716 44 9C44 9.55229 44.4477 10 45 10H54V35L54.0067 35.1166C54.0645 35.614 54.4872 36 55 36C55.5523 36 56 35.5523 56 35V1L55.9933 0.883379Z" fill="#000091"/>
<path d="M5 6C4.4486 6 4 5.5514 4 5C4 4.44855 4.4486 4 5 4C5.5514 4 6 4.44855 6 5C6 5.5514 5.5514 6 5 6Z" fill="#000091"/>
<path d="M8 5C8 5.5514 8.4486 6 9 6C9.5514 6 10 5.5514 10 5C10 4.44855 9.5514 4 9 4C8.4486 4 8 4.44855 8 5Z" fill="#000091"/>
<path d="M13 6C12.4486 6 12 5.5514 12 5C12 4.44855 12.4486 4 13 4C13.5514 4 14 4.44855 14 5C14 5.5514 13.5514 6 13 6Z" fill="#000091"/>
<path d="M51 4C51.5523 4 52 4.44772 52 5C52 5.51284 51.614 5.93551 51.1166 5.99327L51 6H21C20.4477 6 20 5.55228 20 5C20 4.48716 20.386 4.06449 20.8834 4.00673L21 4H51Z" fill="#000091"/>
<path d="M34 17C34 16.4477 33.5523 16 33 16H9L8.88338 16.0067C8.38604 16.0645 8 16.4872 8 17C8 17.5523 8.44771 18 9 18H33L33.1166 17.9933C33.614 17.9355 34 17.5128 34 17Z" fill="#000091"/>
<path d="M29 22C29.5523 22 30 22.4477 30 23C30 23.5128 29.614 23.9355 29.1166 23.9933L29 24H9C8.44771 24 8 23.5523 8 23C8 22.4872 8.38604 22.0645 8.88338 22.0067L9 22H29Z" fill="#000091"/>
<path d="M24 29C24 28.4477 23.5523 28 23 28H9L8.88338 28.0067C8.38604 28.0645 8 28.4872 8 29C8 29.5523 8.44771 30 9 30H23L23.1166 29.9933C23.614 29.9355 24 29.5128 24 29Z" fill="#000091"/>
</svg>
