<svg width="80" height="80" viewBox="0 0 80 80" fill="none" xmlns="http://www.w3.org/2000/svg">
<path fill-rule="evenodd" clip-rule="evenodd" d="M68 13.0005C67.4486 13.0005 67 12.5519 67 12.0005C67 11.449 67.4486 11.0005 68 11.0005C68.5514 11.0005 69 11.449 69 12.0005C69 12.5519 68.5514 13.0005 68 13.0005Z" fill="#ECECFE"/>
<path fill-rule="evenodd" clip-rule="evenodd" d="M41 76.0005C40.4486 76.0005 40 75.5519 40 75.0005C40 74.449 40.4486 74.0005 41 74.0005C41.5514 74.0005 42 74.449 42 75.0005C42 75.5519 41.5514 76.0005 41 76.0005Z" fill="#ECECFE"/>
<path fill-rule="evenodd" clip-rule="evenodd" d="M15 10.0005C14.4486 10.0005 14 9.55189 14 9.00049C14 8.44904 14.4486 8.00049 15 8.00049C15.5514 8.00049 16 8.44904 16 9.00049C16 9.55189 15.5514 10.0005 15 10.0005Z" fill="#ECECFE"/>
<path d="M54.1049 40.5533C54.454 39.855 55.4164 39.8183 55.8301 40.443L55.8938 40.5533L67.8938 64.5533C68.2087 65.1832 67.7914 65.9185 67.1145 65.9941L66.9993 66.0005H62.9993C62.4471 66.0005 61.9993 65.5528 61.9993 65.0005C61.9993 64.4877 62.3854 64.065 62.8827 64.0072L62.9993 64.0005H65.3803L54.9993 43.2365L44.6173 64.0005H58.9993C59.5122 64.0005 59.9348 64.3865 59.9926 64.8839L59.9993 65.0005C59.9993 65.5133 59.6133 65.936 59.116 65.9938L58.9993 66.0005H42.9993C42.2951 66.0005 41.8241 65.2984 42.0591 64.6591L42.1049 64.5533L54.1049 40.5533Z" fill="#E1000F"/>
<path d="M54.9993 50.0005C55.5516 50.0005 55.9993 50.4482 55.9993 51.0005V57.0005C55.9993 57.5528 55.5516 58.0005 54.9993 58.0005C54.4471 58.0005 53.9993 57.5528 53.9993 57.0005V51.0005C53.9993 50.4482 54.4471 50.0005 54.9993 50.0005Z" fill="#E1000F"/>
<path d="M55.9993 61.0005C55.9993 60.4482 55.5516 60.0005 54.9993 60.0005C54.4471 60.0005 53.9993 60.4482 53.9993 61.0005C53.9993 61.5528 54.4471 62.0005 54.9993 62.0005C55.5516 62.0005 55.9993 61.5528 55.9993 61.0005Z" fill="#E1000F"/>
<path d="M67.9933 18.8839C67.9355 18.3865 67.5128 18.0005 67 18.0005H13L12.8834 18.0072C12.386 18.065 12 18.4877 12 19.0005V65.0005L12.0067 65.1171C12.0645 65.6144 12.4872 66.0005 13 66.0005H37L37.1166 65.9938C37.614 65.936 38 65.5133 38 65.0005L37.9933 64.8839C37.9355 64.3865 37.5128 64.0005 37 64.0005H14V28.0005H51L51.1166 27.9938C51.614 27.936 52 27.5133 52 27.0005C52 26.4482 51.5523 26.0005 51 26.0005H14V20.0005H66V26.0005H57L56.8834 26.0072C56.386 26.065 56 26.4877 56 27.0005C56 27.5528 56.4477 28.0005 57 28.0005H66V53.0005L66.0067 53.1171C66.0645 53.6144 66.4872 54.0005 67 54.0005C67.5523 54.0005 68 53.5528 68 53.0005V19.0005L67.9933 18.8839Z" fill="#000091"/>
<path d="M17 24.0005C16.4486 24.0005 16 23.5519 16 23.0005C16 22.449 16.4486 22.0005 17 22.0005C17.5514 22.0005 18 22.449 18 23.0005C18 23.5519 17.5514 24.0005 17 24.0005Z" fill="#000091"/>
<path d="M20 23.0005C20 23.5519 20.4486 24.0005 21 24.0005C21.5514 24.0005 22 23.5519 22 23.0005C22 22.449 21.5514 22.0005 21 22.0005C20.4486 22.0005 20 22.449 20 23.0005Z" fill="#000091"/>
<path d="M25 24.0005C24.4486 24.0005 24 23.5519 24 23.0005C24 22.449 24.4486 22.0005 25 22.0005C25.5514 22.0005 26 22.449 26 23.0005C26 23.5519 25.5514 24.0005 25 24.0005Z" fill="#000091"/>
<path d="M63 22.0005C63.5523 22.0005 64 22.4482 64 23.0005C64 23.5133 63.614 23.936 63.1166 23.9938L63 24.0005H33C32.4477 24.0005 32 23.5528 32 23.0005C32 22.4877 32.386 22.065 32.8834 22.0072L33 22.0005H63Z" fill="#000091"/>
<path d="M46 35.0005C46 34.4482 45.5523 34.0005 45 34.0005H21L20.8834 34.0072C20.386 34.065 20 34.4877 20 35.0005C20 35.5528 20.4477 36.0005 21 36.0005H45L45.1166 35.9938C45.614 35.936 46 35.5133 46 35.0005Z" fill="#000091"/>
<path d="M41 40.0005C41.5523 40.0005 42 40.4482 42 41.0005C42 41.5133 41.614 41.936 41.1166 41.9938L41 42.0005H21C20.4477 42.0005 20 41.5528 20 41.0005C20 40.4877 20.386 40.065 20.8834 40.0072L21 40.0005H41Z" fill="#000091"/>
<path d="M36 47.0005C36 46.4482 35.5523 46.0005 35 46.0005H21L20.8834 46.0072C20.386 46.065 20 46.4877 20 47.0005C20 47.5528 20.4477 48.0005 21 48.0005H35L35.1166 47.9938C35.614 47.936 36 47.5133 36 47.0005Z" fill="#000091"/>
</svg>
