<svg width="44" height="60" viewBox="0 0 44 60" fill="none" xmlns="http://www.w3.org/2000/svg">
<path d="M23 6C23.5523 6 24 6.44772 24 7C24 7.51284 23.614 7.93551 23.1166 7.99327L23 8H7C6.44772 8 6 7.55228 6 7C6 6.48716 6.38604 6.06449 6.88338 6.00673L7 6H23Z" fill="#E1000F"/>
<path d="M33 12C33.5523 12 34 12.4477 34 13C34 13.5128 33.614 13.9355 33.1166 13.9933L33 14H7C6.44772 14 6 13.5523 6 13C6 12.4872 6.38604 12.0645 6.88338 12.0067L7 12H33Z" fill="#E1000F"/>
<path d="M28 19C28 18.4477 27.5523 18 27 18H7L6.88338 18.0067C6.38604 18.0645 6 18.4872 6 19C6 19.5523 6.44772 20 7 20H27L27.1166 19.9933C27.614 19.9355 28 19.5128 28 19Z" fill="#E1000F"/>
<path d="M33 24C33.5523 24 34 24.4477 34 25C34 25.5128 33.614 25.9355 33.1166 25.9933L33 26H7C6.44772 26 6 25.5523 6 25C6 24.4872 6.38604 24.0645 6.88338 24.0067L7 24H33Z" fill="#000091"/>
<path d="M34 37C34 36.4477 33.5523 36 33 36H7L6.88338 36.0067C6.38604 36.0645 6 36.4872 6 37C6 37.5523 6.44772 38 7 38H33L33.1166 37.9933C33.614 37.9355 34 37.5128 34 37Z" fill="#000091"/>
<path d="M28 31C28 30.4477 27.5523 30 27 30H7L6.88338 30.0067C6.38604 30.0645 6 30.4872 6 31C6 31.5523 6.44772 32 7 32H27L27.1166 31.9933C27.614 31.9355 28 31.5128 28 31Z" fill="#000091"/>
<path d="M27 48C27.5523 48 28 48.4477 28 49C28 49.5128 27.614 49.9355 27.1166 49.9933L27 50H7C6.44772 50 6 49.5523 6 49C6 48.4872 6.38604 48.0645 6.88338 48.0067L7 48H27Z" fill="#000091"/>
<path d="M22 43C22 42.4477 21.5523 42 21 42H7L6.88338 42.0067C6.38604 42.0645 6 42.4872 6 43C6 43.5523 6.44772 44 7 44H21L21.1166 43.9933C21.614 43.9355 22 43.5128 22 43Z" fill="#000091"/>
<path fill-rule="evenodd" clip-rule="evenodd" d="M1 0H39C39.5523 0 40 0.447715 40 1V55C40 55.5523 39.5523 56 39 56H1C0.447715 56 0 55.5523 0 55V1C0 0.447715 0.447715 0 1 0ZM38 54V2H2V54H38Z" fill="#000091"/>
<path d="M43 8C43.5128 8 43.9355 8.38604 43.9933 8.88338L44 9V59C44 59.5128 43.614 59.9355 43.1166 59.9933L43 60H9C8.44771 60 8 59.5523 8 59C8 58.4872 8.38604 58.0645 8.88338 58.0067L9 58H42V9C42 8.48716 42.386 8.06449 42.8834 8.00673L43 8Z" fill="#000091"/>
</svg>
