<svg width="80" height="80" viewBox="0 0 80 80" fill="none" xmlns="http://www.w3.org/2000/svg">
<path fill-rule="evenodd" clip-rule="evenodd" d="M67 11.0005C66.4486 11.0005 66 10.5519 66 10.0005C66 9.44904 66.4486 9.00049 67 9.00049C67.5514 9.00049 68 9.44904 68 10.0005C68 10.5519 67.5514 11.0005 67 11.0005Z" fill="#ECECFE"/>
<path fill-rule="evenodd" clip-rule="evenodd" d="M40 74.0005C39.4486 74.0005 39 73.5519 39 73.0005C39 72.449 39.4486 72.0005 40 72.0005C40.5514 72.0005 41 72.449 41 73.0005C41 73.5519 40.5514 74.0005 40 74.0005Z" fill="#ECECFE"/>
<path fill-rule="evenodd" clip-rule="evenodd" d="M14 8.00049C13.4486 8.00049 13 7.55189 13 7.00049C13 6.44904 13.4486 6.00049 14 6.00049C14.5514 6.00049 15 6.44904 15 7.00049C15 7.55189 14.5514 8.00049 14 8.00049Z" fill="#ECECFE"/>
<path d="M40.7318 18.2823C43.6285 15.2251 48.3616 15.253 51.2314 18.2878C52.3324 19.4521 52.9425 21.1468 52.9962 23.0971C53.0114 23.6491 53.4712 24.0844 54.0233 24.0692C54.5754 24.054 55.0106 23.5941 54.9954 23.0421C54.929 20.6286 54.1492 18.4624 52.6845 16.9136C49.2585 13.2906 43.7192 13.0323 40 16.2212C36.2809 13.0323 30.7415 13.2906 27.3155 16.9136C23.8057 20.6251 24.431 27.8828 28.2353 31.9058C29.9796 33.7504 32.5623 35.7196 35.9888 37.8246L36.9442 38.4021C37.4324 38.6925 37.9363 38.9855 38.4559 39.281L39.4947 39.8636C39.5263 39.8821 39.5589 39.8988 39.5922 39.9136C39.7238 39.9726 39.8626 40.0008 39.9998 40.0007C40.1371 40.0009 40.276 39.9727 40.4078 39.9136C40.4411 39.8988 40.4736 39.8821 40.5052 39.8637L41.5441 39.281C42.0637 38.9855 42.5676 38.6925 43.0558 38.4021L44.0112 37.8246C47.4377 35.7196 50.0204 33.7504 51.7647 31.9058C52.1441 31.5046 52.1265 30.8716 51.7252 30.4922C51.3239 30.1127 50.691 30.1304 50.3115 30.5317C48.694 32.2421 46.2303 34.1167 42.9257 36.1441L42.0036 36.7008C41.3644 37.0807 40.6965 37.4658 40 37.856C39.3035 37.4658 38.6356 37.0807 37.9965 36.7008L37.0743 36.1441C33.7697 34.1167 31.306 32.2421 29.6885 30.5317C26.567 27.2307 26.0447 21.1683 28.7686 18.2878C31.6384 15.253 36.3714 15.2251 39.2681 18.2821C39.2762 18.2908 39.2844 18.2994 39.2929 18.3078C39.3751 18.39 39.4682 18.4551 39.5678 18.5028C39.8396 18.6329 40.1589 18.6338 40.4322 18.5028C40.5318 18.4551 40.6249 18.39 40.7071 18.3078C40.7155 18.2994 40.7237 18.2909 40.7318 18.2823Z" fill="#E1000F"/>
<path d="M17 26.0005C17.5523 26.0005 18 26.4482 18 27.0005C18 27.5134 17.614 27.936 17.1166 27.9938L17 28.0005H11C10.4477 28.0005 10 27.5528 10 27.0005C10 26.4877 10.386 26.065 10.8834 26.0072L11 26.0005H17Z" fill="#E1000F"/>
<path d="M21 28.0005C21.5523 28.0005 22 27.5528 22 27.0005C22 26.4482 21.5523 26.0005 21 26.0005C20.4477 26.0005 20 26.4482 20 27.0005C20 27.5528 20.4477 28.0005 21 28.0005Z" fill="#E1000F"/>
<path d="M46.0722 20.6292C46.3555 19.921 47.2812 19.7889 47.7577 20.3466L47.8327 20.4459L51.5357 26.0006H59.0007C59.5135 26.0006 59.9362 26.3867 59.9939 26.884L60.0007 27.0006C60.0007 27.5135 59.6146 27.9361 59.1173 27.9939L59.0007 28.0006H51.0007C50.7081 28.0006 50.4325 27.8727 50.2439 27.6543L50.1686 27.5553L47.2227 23.1366L43.9291 31.372C43.6458 32.0803 42.7201 32.2124 42.2437 31.6547L42.1686 31.5553L38.8447 26.5706L37.7078 27.7077C37.5515 27.864 37.3488 27.9632 37.1321 27.9919L37.0007 28.0006H33.0007C32.4484 28.0006 32.0007 27.5529 32.0007 27.0006C32.0007 26.4878 32.3867 26.0651 32.884 26.0073L33.0007 26.0006H36.5847L38.2936 24.2935C38.71 23.877 39.3849 23.9134 39.7577 24.3469L39.8327 24.4459L42.7777 28.8636L46.0722 20.6292Z" fill="#000091"/>
<path d="M60.9325 42.6898C63.283 41.3328 66.2213 41.9288 67.4787 44.1066C68.736 46.2844 67.783 49.127 65.4325 50.4841L49.3893 60.9359L49.1493 61.0573C47.1245 62.0345 44.4688 62.1629 40.7369 61.7476L40.4385 61.7136L39.8285 61.639L39.1877 61.5543L38.5005 61.4577L36.5964 61.1722L34.286 60.8335L32.9167 60.6488L32.1966 60.5608L31.5465 60.4898L30.9616 60.4356L30.4368 60.3983L30.118 60.3828L29.8222 60.3747L29.4186 60.3764C29.3763 60.3775 29.3348 60.3789 29.2941 60.3806L29.0588 60.3946L28.8407 60.416L28.6385 60.4447L28.4505 60.4807L28.2754 60.524L28.1117 60.5745L27.9579 60.6322C27.933 60.6425 27.9085 60.653 27.8843 60.6638L27.7426 60.7324L27.6073 60.8081L27.5843 60.8222L28.1777 62.4525L28.2331 62.6191C28.6862 64.1238 27.9208 65.7385 26.4448 66.2757L20.987 68.2622L20.8751 68.2957C20.388 68.4116 19.8807 68.1464 19.7053 67.6645C19.5164 67.1455 19.784 66.5717 20.303 66.3828L25.7608 64.3963L25.8598 64.3532C26.273 64.1422 26.476 63.6246 26.2983 63.1365L20.1419 46.222L20.0956 46.1134C19.8722 45.6603 19.365 45.4406 18.9203 45.6025L13.4626 47.5889L13.3635 47.632C12.9503 47.843 12.7473 48.3606 12.925 48.8488L16.0631 58.4074L16.0931 58.5203C16.1933 59.0109 15.9121 59.5095 15.4248 59.6694C14.9001 59.8417 14.3351 59.5559 14.1629 59.0312L10.9809 49.3391C10.5371 47.8615 11.3025 46.2468 12.7785 45.7096L18.2363 43.7231L18.4009 43.6686C19.8863 43.2256 21.4772 44.0431 22.0213 45.538L22.2902 46.2768C22.3395 46.2272 22.3947 46.182 22.4557 46.1424C28.3051 42.3403 36.2709 42.8527 40.725 46.0154L40.9522 46.1813C42.8365 47.5967 44.5113 47.5386 47.4171 45.9488L47.8994 45.6775L48.4046 45.3794L48.9341 45.0543C49.1148 44.9414 49.2997 44.824 49.4892 44.7021C49.5023 44.6938 49.5154 44.6857 49.5287 44.678L49.5431 44.6688L49.5528 44.6627L51.4283 43.5082L51.603 43.4051C53.4257 42.391 55.7501 42.9756 56.8711 44.7697C58.2333 46.9496 58.3958 48.3377 56.553 49.4892L56.1182 49.7791L53.3139 51.6398L51.2443 52.9994L48.9671 54.4729L47.8251 55.1959C46.2761 56.1652 43.704 55.9987 40.0075 54.7893L39.3012 54.5504C39.0614 54.4667 38.8171 54.3789 38.5684 54.2871L37.8089 53.9997C37.4225 53.85 37.0261 53.6912 36.6195 53.5235C36.1089 53.313 35.8657 52.7284 36.0763 52.2178C36.2868 51.7072 36.8714 51.464 37.382 51.6746C37.5126 51.7284 37.642 51.7813 37.7701 51.833L38.5242 52.1313C38.6475 52.1789 38.7695 52.2256 38.8902 52.2711L39.5999 52.5324C39.8315 52.6154 40.0581 52.6943 40.2797 52.7691L40.9294 52.9816L41.5489 53.1699C44.1674 53.934 45.9286 54.0234 46.7642 53.5005L48.1483 52.6223L49.8469 51.5231L52.6007 49.714L55.6015 47.7193C55.9623 47.4522 55.9676 47.1899 55.5319 46.422L55.3701 46.1466L55.175 45.8295C54.6032 44.9143 53.3976 44.636 52.4824 45.2078L50.6012 46.3659L50.5892 46.3723L50.5712 46.3842L50.2738 46.574L49.6948 46.9347C49.6 46.9927 49.506 47.0497 49.4128 47.1056L48.8634 47.4279C45.0832 49.5946 42.657 49.8653 39.9452 47.9229L39.751 47.7804C35.9931 44.9576 28.7639 44.4275 23.5456 47.8193C23.3494 47.9468 23.1252 47.9967 22.9089 47.9767L26.89 58.9147L26.9463 58.8841L27.1387 58.7898L27.3346 58.7047L27.5357 58.6288L27.7438 58.562L27.9607 58.5043L28.1881 58.4556C28.2658 58.4409 28.3456 58.4276 28.4278 58.4159L28.6815 58.3851L28.951 58.3633L29.238 58.3503C29.2874 58.3488 29.3376 58.3478 29.3887 58.3471L29.7053 58.3472L30.0439 58.3562L30.4062 58.3738L30.7939 58.4L31.2088 58.4349L31.886 58.5032L32.6344 58.5907L33.753 58.7367L35.3652 58.9661L38.0454 59.369L39.1227 59.5261L40.0765 59.6544L40.6691 59.7269L41.3736 59.8042C44.6558 60.1381 46.9216 59.9806 48.3772 59.2134L64.3867 48.7801L64.5478 48.6816C65.91 47.8004 66.3973 46.2335 65.7466 45.1066C65.071 43.9363 63.3709 43.5915 61.9325 44.4219C61.4542 44.698 60.8427 44.5342 60.5665 44.0559C60.2904 43.5776 60.4542 42.966 60.9325 42.6898Z" fill="#000091"/>
<path d="M17.0007 50.0006C17.5529 50.0006 18.0007 49.5529 18.0007 49.0006C18.0007 48.4483 17.5529 48.0006 17.0007 48.0006C16.4484 48.0006 16.0007 48.4483 16.0007 49.0006C16.0007 49.5529 16.4484 50.0006 17.0007 50.0006Z" fill="#000091"/>
<path d="M63.0007 28.0006C63.5529 28.0006 64.0007 27.5529 64.0007 27.0006C64.0007 26.4483 63.5529 26.0006 63.0007 26.0006C62.4484 26.0006 62.0007 26.4483 62.0007 27.0006C62.0007 27.5529 62.4484 28.0006 63.0007 28.0006Z" fill="#000091"/>
</svg>
