<svg width="380" height="264" viewBox="0 0 380 264" fill="none" xmlns="http://www.w3.org/2000/svg">
<path d="M378.79 44.5234L3.39062 259.34V44.5234H378.79Z" fill="white"/>
<path d="M378.79 259.764H3.39062L378.79 44.5234V259.764Z" fill="#ABABAB" fill-opacity="0.2"/>
<path d="M34.7418 24.1855C34.7418 27.9295 31.5169 30.9647 27.5389 30.9647C23.5608 30.9647 20.3359 27.9295 20.3359 24.1855C20.3359 20.4414 23.5608 17.4062 27.5389 17.4062C31.5169 17.4062 34.7418 20.4414 34.7418 24.1855Z" fill="#C3C3FE"/>
<path d="M55.9295 24.1855C55.9295 27.9295 52.8944 30.9647 49.1503 30.9647C45.4063 30.9647 42.3711 27.9295 42.3711 24.1855C42.3711 20.4414 45.4063 17.4062 49.1503 17.4062C52.8944 17.4062 55.9295 20.4414 55.9295 24.1855Z" fill="#000091"/>
<path d="M63.5547 24.1855C63.5547 20.4414 66.5898 17.4062 70.3339 17.4062H86.4346C90.1786 17.4062 93.2138 20.4414 93.2138 24.1855C93.2138 27.9295 90.1786 30.9647 86.4346 30.9647H70.3339C66.5898 30.9647 63.5547 27.9295 63.5547 24.1855Z" fill="#2323FF"/>
<path fill-rule="evenodd" clip-rule="evenodd" d="M5.08442 8.08442V258.916H374.552V8.08442H5.08442ZM4.23701 3C1.89698 3 0 4.89697 0 7.23701V259.763C0 262.103 1.89698 264 4.23702 264H375.399C377.739 264 379.636 262.103 379.636 259.763V7.23701C379.636 4.89698 377.739 3 375.399 3H4.23701Z" fill="black"/>
<path d="M25.7875 64.9598L35.4575 57.7969L235.304 105.43L239.243 117.249L179.791 228.633L167.972 236.512L40.1134 245.824L20.7734 217.889L25.7875 64.9598Z" fill="#4B9F6C"/>
<path fill-rule="evenodd" clip-rule="evenodd" d="M274.617 45.4L5.21875 45.4L5.21875 40.1816L274.617 40.1817L274.617 45.4Z" fill="black"/>
<path d="M218.629 154.262L202.105 185.192L161.43 154.262L182.191 136.467L218.629 154.262Z" fill="#CB9F2D"/>
<path d="M120.332 145.787L133.89 81.8086L163.126 88.1641L147.873 151.719L120.332 145.787Z" fill="#FA7659"/>
<path d="M104.656 241.12H88.1315L83.8945 178.413L94.0634 140.703L161.008 153.838L201.683 186.887L177.956 230.951L142.365 172.904L100.843 178.413L104.656 241.12Z" fill="#F95A5C"/>
<path d="M67.3689 114.856L24.1513 111.467L20.7617 178.412H83.0458L93.2146 140.702L67.3689 114.856Z" fill="#FA7659"/>
<path fill-rule="evenodd" clip-rule="evenodd" d="M35.1349 56.2598L236.085 102.999L241.697 115.98L179.902 229.601L167.433 238.134L36.7488 246.264L18.6289 217.462L22.6839 64.9075L35.1349 56.2598ZM35.8326 59.9021L26.0268 66.7128L24.9008 109.073L58.2155 111.62L66.7434 67.0918L35.8326 59.9021ZM70.0475 67.8603L61.6169 111.881L68.4104 112.4L91.2858 136.395V72.8001L70.0475 67.8603ZM94.6755 73.5885V139.247L118.409 144.125L131.475 82.1478L94.6755 73.5885ZM134.777 82.9159L121.73 144.807L145.218 149.634L160.77 88.9617L134.777 82.9159ZM164.073 89.7298L148.542 150.317L160.234 152.72L181.766 135.241L189.903 139.071L199.442 97.9565L164.073 89.7298ZM202.744 98.7244L193.041 140.547L218.07 152.327L237.931 115.811L233.652 105.913L202.744 98.7244ZM216.448 155.31L182.25 139.215L163.4 154.516L200.943 183.819L216.448 155.31ZM199.301 186.838L159.949 156.122L94.234 142.617L85.418 178.18L90.2126 239.541L102.317 238.788L98.6121 176.532L143.012 171.598L177.264 227.298L177.314 227.265L199.301 186.838ZM174.464 229.215L141.25 175.204L128.594 176.61L136.947 236.634L166.289 234.809L174.464 229.215ZM133.554 236.845L125.224 176.985L102.187 179.545L105.7 238.578L133.554 236.845ZM86.8291 239.752L84.217 206.322H62.2357L28.5593 226.881L38.5465 242.756L86.8291 239.752ZM26.7542 224.011L61.2828 202.932H83.9521L82.1394 179.733H23.0226L22.0446 216.525L26.7542 224.011ZM23.1127 176.344H82.381L91.1116 141.125L66.8547 115.681L24.8106 112.465L23.1127 176.344Z" fill="black"/>
<path d="M344.258 175.869V167.564H349.098V168.964H345.942V170.934H348.624V172.334H345.942V174.469H349.098V175.869H344.258Z" fill="white"/>
<path d="M337.816 175.869V167.564H339.501V174.339H342.657V175.869H337.816Z" fill="white"/>
<path d="M330.262 175.869V167.564H332.706C334.438 167.564 335.494 168.419 335.494 169.819C335.494 170.495 335.185 171.076 334.604 171.456C335.482 171.847 335.968 172.559 335.968 173.425C335.968 174.944 334.794 175.869 332.884 175.869H330.262ZM332.741 168.964H331.946V170.839H332.741C333.382 170.839 333.761 170.495 333.761 169.89C333.761 169.308 333.382 168.964 332.741 168.964ZM332.978 172.239H331.946V174.469H332.978C333.761 174.469 334.236 174.054 334.236 173.354C334.236 172.642 333.761 172.239 332.978 172.239Z" fill="white"/>
<path d="M326.137 175.869V167.564H327.821V175.869H326.137Z" fill="white"/>
<path d="M316.242 175.869L319.386 167.564H321.593L324.737 175.869H322.945L322.15 173.71H318.828L318.034 175.869H316.242ZM319.35 172.274H321.628L320.489 169.154L319.35 172.274Z" fill="white"/>
<path d="M311.621 175.869V167.564H316.461V168.964H313.306V170.934H315.987V172.334H313.306V175.869H311.621Z" fill="white"/>
<path d="M301.508 175.869V167.564H306.348V168.964H303.192V170.934H305.874V172.334H303.192V174.469H306.348V175.869H301.508Z" fill="white"/>
<path d="M297.612 172.761V167.564H299.297V172.618C299.297 174.801 298.016 176.106 295.928 176.106C293.852 176.106 292.57 174.801 292.57 172.618V167.564H294.255V172.761C294.255 173.876 294.884 174.528 295.94 174.528C296.972 174.528 297.612 173.876 297.612 172.761Z" fill="white"/>
<path d="M289.84 175.656C290.48 176.238 291.05 176.451 291.584 176.451C291.762 176.451 291.999 176.428 292.177 176.356V177.78C291.904 177.887 291.667 177.934 291.299 177.934C290.374 177.934 289.52 177.555 288.701 176.843L287.716 175.965C287.36 176.06 286.981 176.107 286.577 176.107C283.955 176.107 282.164 174.09 282.164 171.718C282.164 169.345 283.955 167.328 286.577 167.328C289.187 167.328 290.979 169.345 290.979 171.718C290.979 173.106 290.362 174.375 289.342 175.182L289.84 175.656ZM286.577 174.529C288.131 174.529 289.247 173.307 289.247 171.718C289.247 170.128 288.131 168.906 286.577 168.906C285.011 168.906 283.896 170.128 283.896 171.718C283.896 173.307 285.011 174.529 286.577 174.529Z" fill="white"/>
<path d="M275.258 174.719L276.48 173.592C276.978 174.233 277.642 174.612 278.319 174.612C278.983 174.612 279.386 174.256 279.386 173.663C279.386 172.133 275.614 172.548 275.614 169.736C275.614 168.42 276.705 167.328 278.295 167.328C279.541 167.328 280.49 167.886 281.201 168.728L279.968 169.843C279.481 169.214 278.936 168.799 278.307 168.799C277.714 168.799 277.322 169.179 277.322 169.677C277.322 171.184 281.095 170.757 281.095 173.604C281.071 175.17 279.861 176.107 278.33 176.107C276.931 176.107 275.993 175.597 275.258 174.719Z" fill="white"/>
<path d="M271.879 175.869V167.564H273.564V175.869H271.879Z" fill="white"/>
<path d="M263.945 175.869V167.564H266.484C268.311 167.564 269.438 168.502 269.438 170.044C269.438 171.052 268.952 171.8 268.098 172.191L270.696 175.869H268.714L266.496 172.512H265.63V175.869H263.945ZM266.579 168.964H265.63V171.112H266.579C267.291 171.112 267.706 170.696 267.706 170.02C267.706 169.391 267.291 168.964 266.579 168.964Z" fill="white"/>
<path d="M339.781 214.004L341.003 212.877C341.501 213.518 342.166 213.898 342.842 213.898C343.506 213.898 343.91 213.542 343.91 212.948C343.91 211.418 340.137 211.833 340.137 209.022C340.137 207.705 341.229 206.613 342.818 206.613C344.064 206.613 345.013 207.171 345.725 208.013L344.491 209.128C344.005 208.5 343.459 208.084 342.83 208.084C342.237 208.084 341.846 208.464 341.846 208.962C341.846 210.469 345.618 210.042 345.618 212.889C345.594 214.455 344.384 215.392 342.854 215.392C341.454 215.392 340.517 214.882 339.781 214.004Z" fill="white"/>
<path d="M336.402 215.154V206.85H338.087V215.154H336.402Z" fill="white"/>
<path d="M325.711 215.154V206.85H327.811L329.839 210.338L331.868 206.85H333.968V215.154H332.283V209.199L330.433 212.307H329.246L327.396 209.199V215.154H325.711Z" fill="white"/>
<path d="M321.815 212.046V206.85H323.5V211.904C323.5 214.086 322.219 215.391 320.131 215.391C318.055 215.391 316.773 214.086 316.773 211.904V206.85H318.458V212.046C318.458 213.161 319.087 213.814 320.143 213.814C321.175 213.814 321.815 213.161 321.815 212.046Z" fill="white"/>
<path d="M310.78 206.613C313.39 206.613 315.182 208.63 315.182 211.003C315.182 213.376 313.39 215.392 310.78 215.392C308.159 215.392 306.367 213.376 306.367 211.003C306.367 208.63 308.159 206.613 310.78 206.613ZM310.78 213.815C312.335 213.815 313.45 212.593 313.45 211.003C313.45 209.413 312.335 208.191 310.78 208.191C309.214 208.191 308.099 209.413 308.099 211.003C308.099 212.593 309.214 213.815 310.78 213.815Z" fill="white"/>
<path d="M299.465 214.004L300.687 212.877C301.185 213.518 301.849 213.898 302.526 213.898C303.19 213.898 303.593 213.542 303.593 212.948C303.593 211.418 299.821 211.833 299.821 209.022C299.821 207.705 300.912 206.613 302.502 206.613C303.748 206.613 304.697 207.171 305.409 208.013L304.175 209.128C303.688 208.5 303.143 208.084 302.514 208.084C301.921 208.084 301.529 208.464 301.529 208.962C301.529 210.469 305.302 210.042 305.302 212.889C305.278 214.455 304.068 215.392 302.538 215.392C301.138 215.392 300.2 214.882 299.465 214.004Z" fill="white"/>
<path d="M287.016 215.154V206.85H289.175L292.888 212.853V206.85H294.573V215.154H292.414L288.7 209.151V215.154H287.016Z" fill="white"/>
<path d="M280.878 206.613C283.488 206.613 285.28 208.63 285.28 211.003C285.28 213.376 283.488 215.392 280.878 215.392C278.256 215.392 276.465 213.376 276.465 211.003C276.465 208.63 278.256 206.613 280.878 206.613ZM280.878 213.815C282.432 213.815 283.547 212.593 283.547 211.003C283.547 209.413 282.432 208.191 280.878 208.191C279.312 208.191 278.197 209.413 278.197 211.003C278.197 212.593 279.312 213.815 280.878 213.815Z" fill="white"/>
<path d="M267.18 215.154V206.85H269.339L273.052 212.853V206.85H274.737V215.154H272.578L268.864 209.151V215.154H267.18Z" fill="white"/>
<path d="M338.031 91.4386V89.9082H344.841V91.4386H342.278V98.2127H340.594V91.4386H338.031Z" fill="white"/>
<path d="M331.32 98.2127V89.9082H333.859C335.686 89.9082 336.813 90.8454 336.813 92.3877C336.813 93.3961 336.327 94.1435 335.473 94.535L338.071 98.2127H336.089L333.871 94.8553H333.005V98.2127H331.32ZM333.954 91.3081H333.005V93.4554H333.954C334.666 93.4554 335.081 93.0402 335.081 92.364C335.081 91.7352 334.666 91.3081 333.954 91.3081Z" fill="white"/>
<path d="M325.183 89.6719C327.793 89.6719 329.584 91.6887 329.584 94.0614C329.584 96.4341 327.793 98.451 325.183 98.451C322.561 98.451 320.77 96.4341 320.77 94.0614C320.77 91.6887 322.561 89.6719 325.183 89.6719ZM325.183 96.8731C326.737 96.8731 327.852 95.6511 327.852 94.0614C327.852 92.4717 326.737 91.2497 325.183 91.2497C323.617 91.2497 322.502 92.4717 322.502 94.0614C322.502 95.6511 323.617 96.8731 325.183 96.8731Z" fill="white"/>
<path d="M315.066 98.2127V89.9082H319.907V91.3081H316.751V93.2775H319.432V94.6774H316.751V98.2127H315.066Z" fill="white"/>
<path d="M304.953 98.2127V89.9082H309.793V91.3081H306.638V93.2775H309.319V94.6774H306.638V96.8128H309.793V98.2127H304.953Z" fill="white"/>
<path d="M301.054 95.1045V89.9082H302.738V94.9621C302.738 97.145 301.457 98.45 299.369 98.45C297.293 98.45 296.012 97.145 296.012 94.9621V89.9082H297.696V95.1045C297.696 96.2197 298.325 96.8722 299.381 96.8722C300.413 96.8722 301.054 96.2197 301.054 95.1045Z" fill="white"/>
<path d="M293.285 98.0001C293.926 98.5815 294.495 98.795 295.029 98.795C295.207 98.795 295.444 98.7713 295.622 98.7001V100.124C295.349 100.231 295.112 100.278 294.744 100.278C293.819 100.278 292.965 99.8983 292.146 99.1865L291.162 98.3086C290.806 98.4035 290.426 98.451 290.023 98.451C287.401 98.451 285.609 96.4341 285.609 94.0614C285.609 91.6887 287.401 89.6719 290.023 89.6719C292.633 89.6719 294.424 91.6887 294.424 94.0614C294.424 95.4495 293.807 96.7189 292.787 97.5256L293.285 98.0001ZM290.023 96.8731C291.577 96.8731 292.692 95.6511 292.692 94.0614C292.692 92.4717 291.577 91.2497 290.023 91.2497C288.457 91.2497 287.341 92.4717 287.341 94.0614C287.341 95.6511 288.457 96.8731 290.023 96.8731Z" fill="white"/>
<path d="M278.703 97.0629L279.925 95.9359C280.423 96.5765 281.088 96.9561 281.764 96.9561C282.428 96.9561 282.832 96.6002 282.832 96.0071C282.832 94.4766 279.059 94.8919 279.059 92.0802C279.059 90.7633 280.15 89.6719 281.74 89.6719C282.986 89.6719 283.935 90.2295 284.647 91.0718L283.413 92.187C282.927 91.5582 282.381 91.143 281.752 91.143C281.159 91.143 280.767 91.5226 280.767 92.0209C280.767 93.5276 284.54 93.1005 284.54 95.9477C284.516 97.5137 283.306 98.451 281.776 98.451C280.376 98.451 279.439 97.9408 278.703 97.0629Z" fill="white"/>
<path d="M275.324 98.2127V89.9082H277.009V98.2127H275.324Z" fill="white"/>
<path d="M267.391 98.2127V89.9082H269.929C271.756 89.9082 272.883 90.8454 272.883 92.3877C272.883 93.3961 272.397 94.1435 271.543 94.535L274.141 98.2127H272.16L269.941 94.8553H269.075V98.2127H267.391ZM270.024 91.3081H269.075V93.4554H270.024C270.736 93.4554 271.151 93.0402 271.151 92.364C271.151 91.7352 270.736 91.3081 270.024 91.3081Z" fill="white"/>
<rect x="272.27" y="3.91406" width="68.6204" height="68.6204" rx="5" fill="white" stroke="black" stroke-width="6"/>
<path d="M315.219 54.6084L292.746 42.2666L292.514 42.1387L292.277 42.2598L288.031 44.4355V34.1738L292.277 36.3506L292.514 36.4717L292.746 36.3438L315.219 24.001V54.6084Z" fill="white" stroke="black"/>
<path d="M287.531 39.5977V45.4391L292.505 42.9356L315.718 55.453V39.5977H287.531Z" fill="#6A6AF4" fill-opacity="0.3"/>
<path fill-rule="evenodd" clip-rule="evenodd" d="M297.217 44.2969C297.701 44.2969 298.094 44.6973 298.094 45.1913V50.938L306.331 55.4182V50.6255C306.331 50.1316 306.723 49.7311 307.208 49.7311C307.692 49.7311 308.085 50.1316 308.085 50.6255V56.9089C308.085 57.223 307.923 57.5142 307.659 57.6758C307.395 57.8374 307.067 57.8459 306.795 57.698L296.804 52.2638C296.518 52.1083 296.34 51.8049 296.34 51.4746V45.1913C296.34 44.6973 296.732 44.2969 297.217 44.2969Z" fill="#000091" stroke="#000091" stroke-miterlimit="10" stroke-linecap="round" stroke-linejoin="round"/>
<path fill-rule="evenodd" clip-rule="evenodd" d="M319.828 39.8926C319.828 39.4061 320.238 39.0117 320.744 39.0117H325.959C326.465 39.0117 326.875 39.4061 326.875 39.8926C326.875 40.379 326.465 40.7734 325.959 40.7734H320.744C320.238 40.7734 319.828 40.379 319.828 39.8926Z" fill="#FA7659" stroke="#FA7659" stroke-miterlimit="10" stroke-linecap="round" stroke-linejoin="round"/>
<path fill-rule="evenodd" clip-rule="evenodd" d="M326.778 28.9772C327.004 29.4558 326.821 30.0379 326.369 30.2772L321.153 33.0368C320.701 33.2761 320.151 33.0821 319.925 32.6035C319.699 32.1248 319.882 31.5428 320.334 31.3035L325.55 28.5439C326.002 28.3046 326.552 28.4986 326.778 28.9772Z" fill="#F95A5C" stroke="#F95A5C" stroke-miterlimit="10" stroke-linecap="round" stroke-linejoin="round"/>
<path fill-rule="evenodd" clip-rule="evenodd" d="M319.925 48.3561C320.151 47.8775 320.701 47.6835 321.153 47.9228L326.369 50.6824C326.821 50.9217 327.004 51.5037 326.778 51.9824C326.552 52.461 326.002 52.655 325.55 52.4157L320.334 49.6561C319.882 49.4168 319.699 48.8348 319.925 48.3561Z" fill="#CB9F2D" stroke="#CB9F2D" stroke-miterlimit="10" stroke-linecap="round" stroke-linejoin="round"/>
<path fill-rule="evenodd" clip-rule="evenodd" d="M316.458 22.6932C316.727 22.852 316.892 23.1384 316.892 23.4474V55.1616C316.892 55.4707 316.727 55.757 316.458 55.9158C316.19 56.0746 315.856 56.0824 315.58 55.9365L292.306 43.6327L287.645 45.9329C287.369 46.0691 287.041 46.0546 286.778 45.8944C286.515 45.7342 286.355 45.4513 286.355 45.1466V33.4624C286.355 33.1578 286.515 32.8748 286.778 32.7146C287.041 32.5545 287.369 32.5399 287.645 32.6762L292.306 34.9764L315.58 22.6725C315.856 22.5266 316.19 22.5344 316.458 22.6932ZM315.11 24.9157L292.741 36.7411C292.486 36.8759 292.181 36.8801 291.922 36.7525L288.137 34.8848V43.7242L291.922 41.8566C292.181 41.7289 292.486 41.7332 292.741 41.8679L315.11 53.6933V24.9157Z" fill="#000091" stroke="#000091" stroke-miterlimit="10" stroke-linecap="round" stroke-linejoin="round"/>
<path d="M251.418 165.212C251.418 162.817 253.36 160.875 255.755 160.875H358.107C360.502 160.875 362.444 162.817 362.444 165.212V179.958C362.444 182.353 360.502 184.294 358.107 184.294H255.755C253.36 184.294 251.418 182.353 251.418 179.958V165.212Z" fill="#CB9F2D"/>
<path d="M341.93 177.358V169.465H343.982L347.511 175.171V169.465H349.113V177.358H347.06L343.531 171.652V177.358H341.93Z" fill="white"/>
<path d="M335.355 177.358V169.465H339.956V170.795H336.957V172.667H339.505V173.998H336.957V176.028H339.956V177.358H335.355Z" fill="white"/>
<path d="M334.24 169.465L330.993 173.998V177.358H329.392V174.032L326.133 169.465H328.084L330.192 172.442L332.301 169.465H334.24Z" fill="white"/>
<path d="M322.015 169.238C324.496 169.238 326.198 171.155 326.198 173.41C326.198 175.666 324.496 177.583 322.015 177.583C319.523 177.583 317.82 175.666 317.82 173.41C317.82 171.155 319.523 169.238 322.015 169.238ZM322.015 176.083C323.492 176.083 324.552 174.921 324.552 173.41C324.552 171.899 323.492 170.738 322.015 170.738C320.527 170.738 319.467 171.899 319.467 173.41C319.467 174.921 320.527 176.083 322.015 176.083Z" fill="white"/>
<path d="M308.332 177.358V169.465H310.328L312.256 172.78L314.184 169.465H316.18V177.358H314.579V171.698L312.82 174.652H311.692L309.933 171.698V177.358H308.332Z" fill="white"/>
<path d="M298.719 177.358V169.465H303.319V170.795H300.32V172.667H302.868V173.998H300.32V176.028H303.319V177.358H298.719Z" fill="white"/>
<path d="M295.019 174.404V169.465H296.62V174.268C296.62 176.343 295.402 177.584 293.418 177.584C291.444 177.584 290.227 176.343 290.227 174.268V169.465H291.828V174.404C291.828 175.464 292.425 176.084 293.429 176.084C294.41 176.084 295.019 175.464 295.019 174.404Z" fill="white"/>
<path d="M287.632 177.154C288.24 177.707 288.782 177.91 289.289 177.91C289.458 177.91 289.684 177.887 289.853 177.819V179.172C289.594 179.274 289.368 179.319 289.018 179.319C288.139 179.319 287.327 178.958 286.549 178.282L285.613 177.447C285.275 177.537 284.914 177.583 284.531 177.583C282.039 177.583 280.336 175.666 280.336 173.41C280.336 171.155 282.039 169.238 284.531 169.238C287.011 169.238 288.714 171.155 288.714 173.41C288.714 174.73 288.128 175.936 287.158 176.703L287.632 177.154ZM284.531 176.083C286.008 176.083 287.068 174.921 287.068 173.41C287.068 171.899 286.008 170.738 284.531 170.738C283.042 170.738 281.982 171.899 281.982 173.41C281.982 174.921 283.042 176.083 284.531 176.083Z" fill="white"/>
<path d="M273.773 176.263L274.935 175.192C275.408 175.801 276.04 176.162 276.683 176.162C277.314 176.162 277.698 175.823 277.698 175.26C277.698 173.805 274.112 174.2 274.112 171.527C274.112 170.276 275.149 169.238 276.66 169.238C277.844 169.238 278.746 169.768 279.423 170.569L278.25 171.629C277.788 171.031 277.269 170.637 276.671 170.637C276.108 170.637 275.735 170.997 275.735 171.471C275.735 172.903 279.321 172.497 279.321 175.203C279.299 176.692 278.149 177.583 276.694 177.583C275.363 177.583 274.473 177.098 273.773 176.263Z" fill="white"/>
<path d="M270.562 177.358V169.465H272.164V177.358H270.562Z" fill="white"/>
<path d="M263.02 177.358V169.465H265.433C267.169 169.465 268.24 170.356 268.24 171.822C268.24 172.78 267.778 173.49 266.966 173.863L269.436 177.358H267.553L265.444 174.167H264.621V177.358H263.02ZM265.523 170.795H264.621V172.836H265.523C266.199 172.836 266.594 172.442 266.594 171.799C266.594 171.201 266.199 170.795 265.523 170.795Z" fill="white"/>
<path d="M251.418 205.112C251.418 202.717 253.36 200.775 255.755 200.775H358.107C360.502 200.775 362.444 202.717 362.444 205.112V219.858C362.444 222.253 360.502 224.195 358.107 224.195H255.755C253.36 224.195 251.418 222.253 251.418 219.858V205.112Z" fill="#4B9F6C"/>
<path d="M342.105 217.257V209.363H346.706V210.694H343.707V212.566H346.255V213.896H343.707V215.926H346.706V217.257H342.105Z" fill="white"/>
<path d="M335.984 217.257V209.363H337.586V215.802H340.585V217.257H335.984Z" fill="white"/>
<path d="M328.805 217.257V209.363H331.128C332.774 209.363 333.777 210.175 333.777 211.506C333.777 212.148 333.484 212.701 332.932 213.062C333.766 213.434 334.228 214.11 334.228 214.934C334.228 216.377 333.112 217.257 331.297 217.257H328.805ZM331.161 210.694H330.406V212.475H331.161C331.77 212.475 332.131 212.148 332.131 211.573C332.131 211.021 331.77 210.694 331.161 210.694ZM331.387 213.806H330.406V215.926H331.387C332.131 215.926 332.582 215.531 332.582 214.866C332.582 214.189 332.131 213.806 331.387 213.806Z" fill="white"/>
<path d="M324.883 217.257V209.363H326.484V217.257H324.883Z" fill="white"/>
<path d="M315.48 217.257L318.469 209.363H320.566L323.554 217.257H321.851L321.096 215.204H317.939L317.183 217.257H315.48ZM318.435 213.84H320.6L319.517 210.874L318.435 213.84Z" fill="white"/>
<path d="M311.086 217.257V209.363H315.687V210.694H312.687V212.566H315.236V213.896H312.687V217.257H311.086Z" fill="white"/>
<path d="M301.473 217.257V209.363H306.073V210.694H303.074V212.566H305.622V213.896H303.074V215.926H306.073V217.257H301.473Z" fill="white"/>
<path d="M297.773 214.302V209.363H299.374V214.167C299.374 216.242 298.156 217.482 296.172 217.482C294.198 217.482 292.98 216.242 292.98 214.167V209.363H294.582V214.302C294.582 215.362 295.179 215.982 296.183 215.982C297.164 215.982 297.773 215.362 297.773 214.302Z" fill="white"/>
<path d="M290.385 217.053C290.994 217.605 291.536 217.808 292.043 217.808C292.212 217.808 292.438 217.785 292.607 217.718V219.071C292.347 219.172 292.122 219.218 291.772 219.218C290.893 219.218 290.081 218.857 289.303 218.18L288.367 217.346C288.029 217.436 287.668 217.481 287.285 217.481C284.793 217.481 283.09 215.564 283.09 213.309C283.09 211.054 284.793 209.137 287.285 209.137C289.765 209.137 291.468 211.054 291.468 213.309C291.468 214.628 290.882 215.835 289.912 216.601L290.385 217.053ZM287.285 215.981C288.762 215.981 289.822 214.82 289.822 213.309C289.822 211.798 288.762 210.636 287.285 210.636C285.796 210.636 284.736 211.798 284.736 213.309C284.736 214.82 285.796 215.981 287.285 215.981Z" fill="white"/>
<path d="M276.527 216.162L277.689 215.09C278.162 215.699 278.794 216.06 279.437 216.06C280.068 216.06 280.451 215.722 280.451 215.158C280.451 213.704 276.866 214.098 276.866 211.426C276.866 210.174 277.903 209.137 279.414 209.137C280.598 209.137 281.5 209.667 282.177 210.467L281.004 211.527C280.542 210.93 280.023 210.535 279.425 210.535C278.861 210.535 278.489 210.896 278.489 211.369C278.489 212.801 282.075 212.395 282.075 215.102C282.053 216.59 280.902 217.481 279.448 217.481C278.117 217.481 277.226 216.996 276.527 216.162Z" fill="white"/>
<path d="M273.316 217.257V209.363H274.918V217.257H273.316Z" fill="white"/>
<path d="M265.773 217.257V209.363H268.187C269.923 209.363 270.994 210.254 270.994 211.72C270.994 212.678 270.532 213.389 269.72 213.761L272.19 217.257H270.306L268.198 214.065H267.375V217.257H265.773ZM268.277 210.694H267.375V212.735H268.277C268.953 212.735 269.348 212.34 269.348 211.697C269.348 211.1 268.953 210.694 268.277 210.694Z" fill="white"/>
<path d="M251.418 85.4131C251.418 83.0179 253.36 81.0762 255.755 81.0762H358.107C360.502 81.0762 362.444 83.0179 362.444 85.4131V100.159C362.444 102.554 360.502 104.496 358.107 104.496H255.755C253.36 104.496 251.418 102.554 251.418 100.159V85.4131Z" fill="#F95A5C"/>
<path d="M349.879 97.5573V89.6641H354.48V90.9946H351.48V92.8665H354.028V94.197H351.48V96.2267H354.48V97.5573H349.879Z" fill="white"/>
<path d="M339.715 97.5573V89.6641H341.711L343.639 92.9792L345.567 89.6641H347.563V97.5573H345.962V91.8967L344.203 94.851H343.075L341.316 91.8967V97.5573H339.715Z" fill="white"/>
<path d="M334.595 88.9871H333.332L334.618 87.4648H336.253L337.516 88.9871H336.264L335.43 88.1189L334.595 88.9871ZM333.141 97.5569V89.6637H337.741V90.9942H334.742V92.8661H337.29V94.1966H334.742V96.2263H337.741V97.5569H333.141Z" fill="white"/>
<path d="M325.598 97.5573V89.6641H328.011C329.747 89.6641 330.818 90.5549 330.818 92.0208C330.818 92.9792 330.356 93.6896 329.544 94.0617L332.014 97.5573H330.131L328.022 94.3662H327.199V97.5573H325.598ZM328.101 90.9946H327.199V93.0356H328.101C328.778 93.0356 329.172 92.6409 329.172 91.9982C329.172 91.4006 328.778 90.9946 328.101 90.9946Z" fill="white"/>
<path d="M317.605 91.1187V89.6641H324.078V91.1187H321.642V97.5573H320.041V91.1187H317.605Z" fill="white"/>
<path d="M310.953 97.5573H309.047L311.866 93.4754L309.239 89.6641H311.133L312.982 92.3252L314.831 89.6641H316.748L314.099 93.4754L316.929 97.5573H315.023L312.982 94.6255L310.953 97.5573Z" fill="white"/>
<path d="M303.309 97.5573V89.6641H307.909V90.9946H304.91V92.8665H307.458V94.197H304.91V96.2267H307.909V97.5573H303.309Z" fill="white"/>
<path d="M293.695 97.5573V89.6641H298.296V90.9946H295.297V92.8665H297.845V94.197H295.297V96.2267H298.296V97.5573H293.695Z" fill="white"/>
<path d="M289.995 94.603V89.6641H291.597V94.4677C291.597 96.5425 290.379 97.7828 288.394 97.7828C286.421 97.7828 285.203 96.5425 285.203 94.4677V89.6641H286.804V94.603C286.804 95.6629 287.402 96.2831 288.406 96.2831C289.387 96.2831 289.995 95.6629 289.995 94.603Z" fill="white"/>
<path d="M282.608 97.3533C283.217 97.9058 283.758 98.1088 284.266 98.1088C284.435 98.1088 284.66 98.0862 284.829 98.0186V99.3717C284.57 99.4732 284.345 99.5183 283.995 99.5183C283.116 99.5183 282.304 99.1575 281.526 98.4809L280.59 97.6465C280.251 97.7367 279.891 97.7818 279.507 97.7818C277.015 97.7818 275.312 95.8648 275.312 93.6096C275.312 91.3544 277.015 89.4375 279.507 89.4375C281.988 89.4375 283.691 91.3544 283.691 93.6096C283.691 94.9289 283.104 96.1355 282.135 96.9022L282.608 97.3533ZM279.507 96.2821C280.984 96.2821 282.044 95.1206 282.044 93.6096C282.044 92.0986 280.984 90.9372 279.507 90.9372C278.019 90.9372 276.959 92.0986 276.959 93.6096C276.959 95.1206 278.019 96.2821 279.507 96.2821Z" fill="white"/>
<path d="M268.75 96.4625L269.911 95.3913C270.385 96.0002 271.016 96.361 271.659 96.361C272.291 96.361 272.674 96.0227 272.674 95.4589C272.674 94.0043 269.088 94.399 269.088 91.7265C269.088 90.4749 270.126 89.4375 271.637 89.4375C272.821 89.4375 273.723 89.9675 274.399 90.7681L273.227 91.828C272.764 91.2304 272.246 90.8357 271.648 90.8357C271.084 90.8357 270.712 91.1966 270.712 91.6702C270.712 93.1022 274.298 92.6963 274.298 95.4025C274.275 96.891 273.125 97.7818 271.67 97.7818C270.34 97.7818 269.449 97.2969 268.75 96.4625Z" fill="white"/>
<path d="M265.539 97.5573V89.6641H267.14V97.5573H265.539Z" fill="white"/>
<path d="M257.996 97.5573V89.6641H260.409C262.146 89.6641 263.217 90.5549 263.217 92.0208C263.217 92.9792 262.755 93.6896 261.943 94.0617L264.412 97.5573H262.529L260.42 94.3662H259.597V97.5573H257.996ZM260.499 90.9946H259.597V93.0356H260.499C261.176 93.0356 261.571 92.6409 261.571 91.9982C261.571 91.4006 261.176 90.9946 260.499 90.9946Z" fill="white"/>
<path d="M251.418 125.314C251.418 122.918 253.36 120.977 255.755 120.977H358.107C360.502 120.977 362.444 122.918 362.444 125.314V140.059C362.444 142.454 360.502 144.396 358.107 144.396H255.755C253.36 144.396 251.418 142.454 251.418 140.059V125.314Z" fill="#FA7659"/>
<path d="M337.234 131.019V129.564H343.707V131.019H341.271V137.458H339.67V131.019H337.234Z" fill="white"/>
<path d="M330.855 137.458V129.564H333.269C335.005 129.564 336.076 130.455 336.076 131.921C336.076 132.88 335.614 133.59 334.802 133.962L337.272 137.458H335.388L333.28 134.267H332.457V137.458H330.855ZM333.359 130.895H332.457V132.936H333.359C334.035 132.936 334.43 132.541 334.43 131.899C334.43 131.301 334.035 130.895 333.359 130.895Z" fill="white"/>
<path d="M325.027 129.338C327.507 129.338 329.21 131.255 329.21 133.51C329.21 135.765 327.507 137.682 325.027 137.682C322.535 137.682 320.832 135.765 320.832 133.51C320.832 131.255 322.535 129.338 325.027 129.338ZM325.027 136.182C326.504 136.182 327.564 135.021 327.564 133.51C327.564 131.999 326.504 130.838 325.027 130.838C323.538 130.838 322.478 131.999 322.478 133.51C322.478 135.021 323.538 136.182 325.027 136.182Z" fill="white"/>
<path d="M315.406 137.458V129.564H320.007V130.895H317.007V132.767H319.556V134.097H317.007V137.458H315.406Z" fill="white"/>
<path d="M305.793 137.458V129.564H310.394V130.895H307.394V132.767H309.943V134.097H307.394V136.127H310.394V137.458H305.793Z" fill="white"/>
<path d="M302.089 134.503V129.564H303.69V134.368C303.69 136.443 302.473 137.683 300.488 137.683C298.515 137.683 297.297 136.443 297.297 134.368V129.564H298.898V134.503C298.898 135.563 299.496 136.183 300.499 136.183C301.48 136.183 302.089 135.563 302.089 134.503Z" fill="white"/>
<path d="M294.706 137.254C295.315 137.806 295.856 138.009 296.363 138.009C296.532 138.009 296.758 137.987 296.927 137.919V139.272C296.668 139.374 296.442 139.419 296.093 139.419C295.213 139.419 294.401 139.058 293.623 138.381L292.687 137.547C292.349 137.637 291.988 137.682 291.605 137.682C289.113 137.682 287.41 135.765 287.41 133.51C287.41 131.255 289.113 129.338 291.605 129.338C294.086 129.338 295.788 131.255 295.788 133.51C295.788 134.829 295.202 136.036 294.232 136.803L294.706 137.254ZM291.605 136.182C293.082 136.182 294.142 135.021 294.142 133.51C294.142 131.999 293.082 130.838 291.605 130.838C290.116 130.838 289.056 131.999 289.056 133.51C289.056 135.021 290.116 136.182 291.605 136.182Z" fill="white"/>
<path d="M280.848 136.363L282.009 135.292C282.483 135.901 283.114 136.261 283.757 136.261C284.388 136.261 284.772 135.923 284.772 135.359C284.772 133.905 281.186 134.299 281.186 131.627C281.186 130.375 282.223 129.338 283.734 129.338C284.918 129.338 285.82 129.868 286.497 130.668L285.324 131.728C284.862 131.131 284.343 130.736 283.746 130.736C283.182 130.736 282.81 131.097 282.81 131.571C282.81 133.003 286.395 132.597 286.395 135.303C286.373 136.791 285.223 137.682 283.768 137.682C282.438 137.682 281.547 137.197 280.848 136.363Z" fill="white"/>
<path d="M277.637 137.458V129.564H279.238V137.458H277.637Z" fill="white"/>
<path d="M270.094 137.458V129.564H272.507C274.243 129.564 275.315 130.455 275.315 131.921C275.315 132.88 274.852 133.59 274.04 133.962L276.51 137.458H274.627L272.518 134.267H271.695V137.458H270.094ZM272.597 130.895H271.695V132.936H272.597C273.274 132.936 273.668 132.541 273.668 131.899C273.668 131.301 273.274 130.895 272.597 130.895Z" fill="white"/>
</svg>
