<svg width="80" height="80" viewBox="0 0 80 80" fill="none" xmlns="http://www.w3.org/2000/svg">
<path fill-rule="evenodd" clip-rule="evenodd" d="M10 8.00049C9.4486 8.00049 9 7.55189 9 7.00049C9 6.44904 9.4486 6.00049 10 6.00049C10.5514 6.00049 11 6.44904 11 7.00049C11 7.55189 10.5514 8.00049 10 8.00049Z" fill="#ECECFE"/>
<path fill-rule="evenodd" clip-rule="evenodd" d="M16 71.0005C15.4486 71.0005 15 70.5519 15 70.0005C15 69.449 15.4486 69.0005 16 69.0005C16.5514 69.0005 17 69.449 17 70.0005C17 70.5519 16.5514 71.0005 16 71.0005Z" fill="#ECECFE"/>
<path fill-rule="evenodd" clip-rule="evenodd" d="M68 56.0005C67.4486 56.0005 67 55.5519 67 55.0005C67 54.449 67.4486 54.0005 68 54.0005C68.5514 54.0005 69 54.449 69 55.0005C69 55.5519 68.5514 56.0005 68 56.0005Z" fill="#ECECFE"/>
<path fill-rule="evenodd" clip-rule="evenodd" d="M70 8.00049C69.4486 8.00049 69 7.55189 69 7.00049C69 6.44904 69.4486 6.00049 70 6.00049C70.5514 6.00049 71 6.44904 71 7.00049C71 7.55189 70.5514 8.00049 70 8.00049Z" fill="#ECECFE"/>
<path fill-rule="evenodd" clip-rule="evenodd" d="M40.5 34.0005C38.567 34.0005 37 35.5675 37 37.5005C37 39.4335 38.567 41.0005 40.5 41.0005C42.433 41.0005 44 39.4335 44 37.5005C44 35.5675 42.433 34.0005 40.5 34.0005ZM35 37.5005C35 34.4629 37.4624 32.0005 40.5 32.0005C43.5376 32.0005 46 34.4629 46 37.5005C46 40.5381 43.5376 43.0005 40.5 43.0005C37.4624 43.0005 35 40.5381 35 37.5005Z" fill="#E1000F"/>
<path fill-rule="evenodd" clip-rule="evenodd" d="M35.5 57.0005C35.5 56.4482 35.9477 56.0005 36.5 56.0005H37.5C38.0523 56.0005 38.5 56.4482 38.5 57.0005C38.5 57.5528 38.0523 58.0005 37.5 58.0005H36.5C35.9477 58.0005 35.5 57.5528 35.5 57.0005Z" fill="#E1000F"/>
<path fill-rule="evenodd" clip-rule="evenodd" d="M38.0591 25.6618C38.2019 25.265 38.5783 25.0005 39 25.0005H42C42.4217 25.0005 42.7981 25.265 42.9409 25.6618L43.698 27.7647L45.0795 28.3927L47.0528 27.4061C47.4378 27.2136 47.9027 27.289 48.2071 27.5934L50.4071 29.7934C50.7115 30.0977 50.7869 30.5627 50.5944 30.9477L49.5932 32.9501L50.1554 34.3866L52.2941 35.0447C52.7137 35.1738 53 35.5615 53 36.0005V39.1005C53 39.5267 52.7299 39.9061 52.3271 40.0455L50.1544 40.7976L49.5974 42.1591L50.5944 44.1533C50.7908 44.5459 50.708 45.0207 50.3905 45.3238L48.1905 47.4238C47.8943 47.7066 47.4556 47.7802 47.0833 47.6096L45.0774 46.6902L43.6903 47.2576L42.9409 49.3392C42.7981 49.736 42.4217 50.0005 42 50.0005H39C38.5783 50.0005 38.2019 49.736 38.0591 49.3392L37.3097 47.2576L35.9226 46.6902L33.9167 47.6096C33.5444 47.7802 33.1057 47.7066 32.8095 47.4238L30.6095 45.3238C30.292 45.0207 30.2092 44.5459 30.4056 44.1533L31.4026 42.1591L30.8456 40.7976L28.6729 40.0455C28.2701 39.9061 28 39.5267 28 39.1005V36.0005C28 35.5615 28.2863 35.1738 28.7059 35.0447L30.8446 34.3866L31.4068 32.9501L30.4056 30.9477C30.2131 30.5627 30.2885 30.0977 30.5929 29.7934L32.7929 27.5934C33.0973 27.289 33.5622 27.2136 33.9472 27.4061L35.9205 28.3927L37.302 27.7647L38.0591 25.6618ZM39.7028 27.0005L39.0409 28.8392C38.9495 29.0931 38.7594 29.2992 38.5138 29.4109L36.3138 30.4109C36.0391 30.5357 35.7227 30.5299 35.4528 30.3949L33.6975 29.5172L32.5168 30.6979L33.3944 32.4533C33.521 32.7064 33.5344 33.0013 33.4312 33.2649L32.5312 35.5649C32.4201 35.8488 32.1855 36.0666 31.8941 36.1563L30 36.7391V38.3884L31.9271 39.0555C32.1987 39.1495 32.4167 39.3558 32.5255 39.6219L33.4255 41.8219C33.5347 42.0887 33.5234 42.3898 33.3944 42.6477L32.5247 44.3871L33.6999 45.5088L35.4833 44.6914C35.7348 44.5762 36.0227 44.5702 36.2786 44.6749L38.4786 45.5749C38.7407 45.6821 38.945 45.8954 39.0409 46.1618L39.7028 48.0005H41.2972L41.9591 46.1618C42.055 45.8954 42.2593 45.6821 42.5214 45.5749L44.7214 44.6749C44.9773 44.5702 45.2652 44.5762 45.5167 44.6914L47.3001 45.5088L48.4753 44.3871L47.6056 42.6477C47.4766 42.3898 47.4653 42.0887 47.5745 41.8219L48.4745 39.6219C48.5833 39.3558 48.8013 39.1495 49.0729 39.0555L51 38.3884V36.7391L49.1059 36.1563C48.8145 36.0666 48.5799 35.8488 48.4688 35.5649L47.5688 33.2649C47.4656 33.0013 47.479 32.7064 47.6056 32.4533L48.4832 30.6979L47.3025 29.5172L45.5472 30.3949C45.2773 30.5299 44.9609 30.5357 44.6862 30.4109L42.4862 29.4109C42.2406 29.2992 42.0505 29.0931 41.9591 28.8392L41.2972 27.0005H39.7028Z" fill="#E1000F"/>
<path fill-rule="evenodd" clip-rule="evenodd" d="M39.5 57.0005C39.5 56.4482 39.9477 56.0005 40.5 56.0005H47.5C48.0523 56.0005 48.5 56.4482 48.5 57.0005C48.5 57.5528 48.0523 58.0005 47.5 58.0005H40.5C39.9477 58.0005 39.5 57.5528 39.5 57.0005Z" fill="#000091"/>
<path fill-rule="evenodd" clip-rule="evenodd" d="M45.2607 64.5351C45.7939 64.679 46.1094 65.228 45.9654 65.7612C45.3092 68.1917 43.551 70.5005 40.7 70.5005C37.8587 70.5005 35.61 68.3227 35.0244 65.72C34.9032 65.1812 35.2417 64.6461 35.7805 64.5249C36.3193 64.4036 36.8544 64.7422 36.9756 65.281C37.39 67.1228 38.9413 68.5005 40.7 68.5005C42.249 68.5005 43.4908 67.2537 44.0346 65.2398C44.1785 64.7066 44.7275 64.3911 45.2607 64.5351Z" fill="#000091"/>
<path fill-rule="evenodd" clip-rule="evenodd" d="M40.5 10.0005C41.0523 10.0005 41.5 10.4482 41.5 11.0005V16.0005C41.5 16.5528 41.0523 17.0005 40.5 17.0005C39.9477 17.0005 39.5 16.5528 39.5 16.0005V11.0005C39.5 10.4482 39.9477 10.0005 40.5 10.0005Z" fill="#000091"/>
<path fill-rule="evenodd" clip-rule="evenodd" d="M13 38.0005C13 37.4482 13.4477 37.0005 14 37.0005H19C19.5523 37.0005 20 37.4482 20 38.0005C20 38.5528 19.5523 39.0005 19 39.0005H14C13.4477 39.0005 13 38.5528 13 38.0005Z" fill="#000091"/>
<path fill-rule="evenodd" clip-rule="evenodd" d="M17.1753 28.6197C17.3856 28.1091 17.9701 27.8655 18.4808 28.0758L20.1808 28.7758C20.6914 28.9861 20.935 29.5706 20.7247 30.0812C20.5144 30.5919 19.9299 30.8354 19.4193 30.6252L17.7193 29.9252C17.2086 29.7149 16.965 29.1304 17.1753 28.6197Z" fill="#000091"/>
<path fill-rule="evenodd" clip-rule="evenodd" d="M30.5528 14.8061C31.0468 14.5591 31.6474 14.7593 31.8944 15.2533L32.8944 17.2533C33.1414 17.7473 32.9412 18.3479 32.4472 18.5949C31.9532 18.8419 31.3526 18.6417 31.1056 18.1477L30.1056 16.1477C29.8586 15.6537 30.0588 15.0531 30.5528 14.8061Z" fill="#000091"/>
<path fill-rule="evenodd" clip-rule="evenodd" d="M20.2929 17.4934C20.6834 17.1029 21.3166 17.1029 21.7071 17.4934L25.7071 21.4934C26.0976 21.8839 26.0976 22.5171 25.7071 22.9076C25.3166 23.2981 24.6834 23.2981 24.2929 22.9076L20.2929 18.9076C19.9024 18.5171 19.9024 17.8839 20.2929 17.4934Z" fill="#000091"/>
<path fill-rule="evenodd" clip-rule="evenodd" d="M61 38.0005C61 37.4482 61.4477 37.0005 62 37.0005H67C67.5523 37.0005 68 37.4482 68 38.0005C68 38.5528 67.5523 39.0005 67 39.0005H62C61.4477 39.0005 61 38.5528 61 38.0005Z" fill="#000091"/>
<path fill-rule="evenodd" clip-rule="evenodd" d="M63.8247 28.6197C64.035 29.1304 63.7914 29.7149 63.2808 29.9252L61.5808 30.6252C61.0701 30.8354 60.4856 30.5919 60.2753 30.0812C60.0651 29.5706 60.3086 28.9861 60.8193 28.7758L62.5193 28.0758C63.0299 27.8655 63.6144 28.1091 63.8247 28.6197Z" fill="#000091"/>
<path fill-rule="evenodd" clip-rule="evenodd" d="M50.4472 14.8061C50.9412 15.0531 51.1414 15.6537 50.8944 16.1477L49.8944 18.1477C49.6474 18.6417 49.0468 18.8419 48.5528 18.5949C48.0588 18.3479 47.8586 17.7473 48.1056 17.2533L49.1056 15.2533C49.3526 14.7593 49.9532 14.5591 50.4472 14.8061Z" fill="#000091"/>
<path fill-rule="evenodd" clip-rule="evenodd" d="M60.7071 17.4934C61.0976 17.8839 61.0976 18.5171 60.7071 18.9076L56.7071 22.9076C56.3166 23.2981 55.6834 23.2981 55.2929 22.9076C54.9024 22.5171 54.9024 21.8839 55.2929 21.4934L59.2929 17.4934C59.6834 17.1029 60.3166 17.1029 60.7071 17.4934Z" fill="#000091"/>
<path fill-rule="evenodd" clip-rule="evenodd" d="M53.8071 48.7934C54.1976 49.1839 54.1976 49.8171 53.8071 50.2076C53.6896 50.3251 53.5697 50.4465 53.4471 50.5706C52.4809 51.5489 51.3508 52.6931 49.9472 53.3949C49.4532 53.6419 48.8526 53.4417 48.6056 52.9477C48.3586 52.4537 48.5588 51.8531 49.0528 51.6061C50.1405 51.0622 51.0268 50.1691 52.027 49.1611C52.1472 49.0401 52.2689 48.9173 52.3929 48.7934C52.7834 48.4029 53.4166 48.4029 53.8071 48.7934Z" fill="#000091"/>
<path fill-rule="evenodd" clip-rule="evenodd" d="M40.5 21.0005C31.3523 21.0005 24 28.3528 24 37.5005C24 43.4296 27.1993 48.6195 31.9269 51.5506C32.3963 51.8416 32.5409 52.458 32.2499 52.9274C31.9589 53.3968 31.3424 53.5414 30.8731 53.2504C25.6007 49.9815 22 44.1714 22 37.5005C22 27.2482 30.2477 19.0005 40.5 19.0005C50.7523 19.0005 59 27.2482 59 37.5005C59 40.5654 58.2592 43.4293 56.8793 45.9768C56.6162 46.4624 56.0093 46.6428 55.5237 46.3798C55.0381 46.1167 54.8577 45.5098 55.1207 45.0242C56.3408 42.7717 57 40.2356 57 37.5005C57 28.3528 49.6477 21.0005 40.5 21.0005Z" fill="#000091"/>
<path fill-rule="evenodd" clip-rule="evenodd" d="M30.7156 51.8802C31.0582 51.447 31.687 51.3735 32.1203 51.7161C32.5108 52.0249 32.7888 52.4593 32.992 52.8873C33.201 53.3274 33.3654 53.8352 33.493 54.3675C33.7481 55.4323 33.877 56.6872 33.877 57.9005H31.877C31.877 56.8137 31.7601 55.7187 31.548 54.8335C31.4419 54.3907 31.3175 54.0235 31.1852 53.7449C31.0472 53.4542 30.9318 53.326 30.8797 53.2849C30.4465 52.9423 30.373 52.3134 30.7156 51.8802ZM49.1229 57.9005V62.4005C49.1229 63.0561 48.8636 64.0055 48.3926 64.7986C47.9263 65.5837 47.071 66.5005 45.7623 66.5005H35.2377C33.929 66.5005 33.0737 65.5837 32.6074 64.7986C32.1364 64.0055 31.877 63.0561 31.877 62.4005V57.9005H33.877V62.4005C33.877 62.6449 34.0112 63.2455 34.327 63.7774C34.6476 64.3172 34.9726 64.5005 35.2377 64.5005H45.7623C46.0274 64.5005 46.3524 64.3172 46.673 63.7774C46.9888 63.2455 47.1229 62.6449 47.1229 62.4005V57.9009L49.1229 57.9005ZM49.1229 57.9005C49.1229 56.8138 49.2399 55.7187 49.452 54.8335C49.5581 54.3907 49.6825 54.0235 49.8148 53.7449C49.9528 53.4542 50.0682 53.326 50.1203 53.2849C50.5535 52.9423 50.627 52.3134 50.2844 51.8802C49.9418 51.447 49.313 51.3735 48.8797 51.7161C48.4892 52.0249 48.2112 52.4593 48.008 52.8873C47.799 53.3274 47.6346 53.8352 47.507 54.3675C47.2519 55.4323 47.1229 56.6876 47.1229 57.9009L49.1229 57.9005Z" fill="#000091"/>
</svg>
