<svg width="55" height="61" viewBox="0 0 55 61" fill="none" xmlns="http://www.w3.org/2000/svg">
<path fill-rule="evenodd" clip-rule="evenodd" d="M27.5 24C25.567 24 24 25.567 24 27.5C24 29.433 25.567 31 27.5 31C29.433 31 31 29.433 31 27.5C31 25.567 29.433 24 27.5 24ZM22 27.5C22 24.4624 24.4624 22 27.5 22C30.5376 22 33 24.4624 33 27.5C33 30.5376 30.5376 33 27.5 33C24.4624 33 22 30.5376 22 27.5Z" fill="#E1000F"/>
<path fill-rule="evenodd" clip-rule="evenodd" d="M22.5 47C22.5 46.4477 22.9477 46 23.5 46H24.5C25.0523 46 25.5 46.4477 25.5 47C25.5 47.5523 25.0523 48 24.5 48H23.5C22.9477 48 22.5 47.5523 22.5 47Z" fill="#E1000F"/>
<path fill-rule="evenodd" clip-rule="evenodd" d="M25.0591 15.6613C25.2019 15.2645 25.5783 15 26 15H29C29.4217 15 29.7981 15.2645 29.9409 15.6613L30.698 17.7642L32.0795 18.3922L34.0528 17.4056C34.4378 17.2131 34.9027 17.2885 35.2071 17.5929L37.4071 19.7929C37.7115 20.0973 37.7869 20.5622 37.5944 20.9472L36.5932 22.9496L37.1554 24.3862L39.2941 25.0442C39.7137 25.1733 40 25.561 40 26V29.1C40 29.5262 39.7299 29.9056 39.3271 30.045L37.1544 30.7971L36.5974 32.1586L37.5944 34.1528C37.7908 34.5454 37.708 35.0202 37.3905 35.3234L35.1905 37.4234C34.8943 37.7061 34.4556 37.7797 34.0833 37.6091L32.0774 36.6897L30.6903 37.2572L29.9409 39.3387C29.7981 39.7355 29.4217 40 29 40H26C25.5783 40 25.2019 39.7355 25.0591 39.3387L24.3097 37.2572L22.9226 36.6897L20.9167 37.6091C20.5444 37.7797 20.1057 37.7061 19.8095 37.4234L17.6095 35.3234C17.292 35.0202 17.2092 34.5454 17.4056 34.1528L18.4026 32.1586L17.8456 30.7971L15.6729 30.045C15.2701 29.9056 15 29.5262 15 29.1V26C15 25.561 15.2863 25.1733 15.7059 25.0442L17.8446 24.3862L18.4068 22.9496L17.4056 20.9472C17.2131 20.5622 17.2885 20.0973 17.5929 19.7929L19.7929 17.5929C20.0973 17.2885 20.5622 17.2131 20.9472 17.4056L22.9205 18.3922L24.302 17.7642L25.0591 15.6613ZM26.7028 17L26.0409 18.8387C25.9495 19.0926 25.7594 19.2987 25.5138 19.4104L23.3138 20.4104C23.0391 20.5352 22.7227 20.5294 22.4528 20.3944L20.6975 19.5168L19.5168 20.6975L20.3944 22.4528C20.521 22.7059 20.5344 23.0008 20.4312 23.2644L19.5312 25.5644C19.4201 25.8484 19.1855 26.0661 18.8941 26.1558L17 26.7386V28.3879L18.9271 29.055C19.1987 29.149 19.4167 29.3554 19.5255 29.6214L20.4255 31.8214C20.5347 32.0883 20.5234 32.3893 20.3944 32.6472L19.5247 34.3866L20.6999 35.5084L22.4833 34.6909C22.7348 34.5757 23.0227 34.5697 23.2786 34.6745L25.4786 35.5745C25.7407 35.6817 25.945 35.8949 26.0409 36.1613L26.7028 38H28.2972L28.9591 36.1613C29.055 35.8949 29.2593 35.6817 29.5214 35.5745L31.7214 34.6745C31.9773 34.5697 32.2652 34.5757 32.5167 34.6909L34.3001 35.5084L35.4753 34.3866L34.6056 32.6472C34.4766 32.3893 34.4653 32.0883 34.5745 31.8214L35.4745 29.6214C35.5833 29.3554 35.8013 29.149 36.0729 29.055L38 28.3879V26.7386L36.1059 26.1558C35.8145 26.0661 35.5799 25.8484 35.4688 25.5644L34.5688 23.2644C34.4656 23.0008 34.479 22.7059 34.6056 22.4528L35.4832 20.6975L34.3025 19.5168L32.5472 20.3944C32.2773 20.5294 31.9609 20.5352 31.6862 20.4104L29.4862 19.4104C29.2406 19.2987 29.0505 19.0926 28.9591 18.8387L28.2972 17H26.7028Z" fill="#E1000F"/>
<path fill-rule="evenodd" clip-rule="evenodd" d="M26.5 47C26.5 46.4477 26.9477 46 27.5 46H34.5C35.0523 46 35.5 46.4477 35.5 47C35.5 47.5523 35.0523 48 34.5 48H27.5C26.9477 48 26.5 47.5523 26.5 47Z" fill="#000091"/>
<path fill-rule="evenodd" clip-rule="evenodd" d="M32.2607 54.5346C32.7939 54.6785 33.1094 55.2275 32.9654 55.7607C32.3092 58.1912 30.551 60.5 27.7 60.5C24.8587 60.5 22.61 58.3222 22.0244 55.7195C21.9032 55.1807 22.2417 54.6456 22.7805 54.5244C23.3193 54.4032 23.8544 54.7417 23.9756 55.2805C24.39 57.1223 25.9413 58.5 27.7 58.5C29.249 58.5 30.4908 57.2532 31.0346 55.2393C31.1785 54.7061 31.7275 54.3906 32.2607 54.5346Z" fill="#000091"/>
<path fill-rule="evenodd" clip-rule="evenodd" d="M27.5 0C28.0523 0 28.5 0.447715 28.5 1V6C28.5 6.55228 28.0523 7 27.5 7C26.9477 7 26.5 6.55228 26.5 6V1C26.5 0.447715 26.9477 0 27.5 0Z" fill="#000091"/>
<path fill-rule="evenodd" clip-rule="evenodd" d="M0 28C0 27.4477 0.447715 27 1 27H6C6.55228 27 7 27.4477 7 28C7 28.5523 6.55228 29 6 29H1C0.447715 29 0 28.5523 0 28Z" fill="#000091"/>
<path fill-rule="evenodd" clip-rule="evenodd" d="M4.17533 18.6192C4.38561 18.1086 4.97007 17.865 5.48076 18.0753L7.18076 18.7753C7.69144 18.9856 7.93497 19.5701 7.72468 20.0807C7.5144 20.5914 6.92994 20.835 6.41925 20.6247L4.71926 19.9247C4.20857 19.7144 3.96505 19.1299 4.17533 18.6192Z" fill="#000091"/>
<path fill-rule="evenodd" clip-rule="evenodd" d="M17.5528 4.80558C18.0468 4.5586 18.6474 4.75882 18.8944 5.2528L19.8944 7.2528C20.1414 7.74678 19.9412 8.34745 19.4472 8.59444C18.9532 8.84143 18.3526 8.6412 18.1056 8.14723L17.1056 6.14723C16.8586 5.65325 17.0588 5.05257 17.5528 4.80558Z" fill="#000091"/>
<path fill-rule="evenodd" clip-rule="evenodd" d="M7.29289 7.49291C7.68342 7.10238 8.31658 7.10238 8.70711 7.49291L12.7071 11.4929C13.0976 11.8834 13.0976 12.5166 12.7071 12.9071C12.3166 13.2976 11.6834 13.2976 11.2929 12.9071L7.29289 8.90712C6.90237 8.51659 6.90237 7.88343 7.29289 7.49291Z" fill="#000091"/>
<path fill-rule="evenodd" clip-rule="evenodd" d="M48 28C48 27.4477 48.4477 27 49 27H54C54.5523 27 55 27.4477 55 28C55 28.5523 54.5523 29 54 29H49C48.4477 29 48 28.5523 48 28Z" fill="#000091"/>
<path fill-rule="evenodd" clip-rule="evenodd" d="M50.8247 18.6192C51.035 19.1299 50.7914 19.7144 50.2808 19.9247L48.5808 20.6247C48.0701 20.835 47.4856 20.5914 47.2753 20.0807C47.0651 19.5701 47.3086 18.9856 47.8193 18.7753L49.5193 18.0753C50.0299 17.865 50.6144 18.1086 50.8247 18.6192Z" fill="#000091"/>
<path fill-rule="evenodd" clip-rule="evenodd" d="M37.4472 4.80558C37.9412 5.05257 38.1414 5.65325 37.8944 6.14723L36.8944 8.14723C36.6474 8.6412 36.0468 8.84143 35.5528 8.59444C35.0588 8.34745 34.8586 7.74678 35.1056 7.2528L36.1056 5.2528C36.3526 4.75882 36.9532 4.5586 37.4472 4.80558Z" fill="#000091"/>
<path fill-rule="evenodd" clip-rule="evenodd" d="M47.7071 7.49291C48.0976 7.88343 48.0976 8.51659 47.7071 8.90712L43.7071 12.9071C43.3166 13.2976 42.6834 13.2976 42.2929 12.9071C41.9024 12.5166 41.9024 11.8834 42.2929 11.4929L46.2929 7.49291C46.6834 7.10238 47.3166 7.10238 47.7071 7.49291Z" fill="#000091"/>
<path fill-rule="evenodd" clip-rule="evenodd" d="M40.8071 38.7929C41.1976 39.1834 41.1976 39.8166 40.8071 40.2071C40.6896 40.3246 40.5697 40.446 40.4471 40.5701C39.4809 41.5484 38.3508 42.6926 36.9472 43.3944C36.4532 43.6414 35.8526 43.4412 35.6056 42.9472C35.3586 42.4532 35.5588 41.8526 36.0528 41.6056C37.1405 41.0617 38.0268 40.1686 39.027 39.1606C39.1472 39.0396 39.2689 38.9169 39.3929 38.7929C39.7834 38.4024 40.4166 38.4024 40.8071 38.7929Z" fill="#000091"/>
<path fill-rule="evenodd" clip-rule="evenodd" d="M27.5 11C18.3523 11 11 18.3523 11 27.5C11 33.4291 14.1993 38.619 18.9269 41.5501C19.3963 41.8411 19.5409 42.4576 19.2499 42.9269C18.9589 43.3963 18.3424 43.5409 17.8731 43.2499C12.6007 39.981 9 34.1709 9 27.5C9 17.2477 17.2477 9 27.5 9C37.7523 9 46 17.2477 46 27.5C46 30.5649 45.2592 33.4288 43.8793 35.9763C43.6162 36.4619 43.0093 36.6423 42.5237 36.3793C42.0381 36.1162 41.8577 35.5093 42.1207 35.0237C43.3408 32.7712 44 30.2351 44 27.5C44 18.3523 36.6477 11 27.5 11Z" fill="#000091"/>
<path fill-rule="evenodd" clip-rule="evenodd" d="M17.7156 41.8797C18.0582 41.4465 18.687 41.373 19.1203 41.7156C19.5108 42.0244 19.7888 42.4588 19.992 42.8868C20.201 43.327 20.3654 43.8347 20.493 44.367C20.7481 45.4318 20.877 46.6867 20.877 47.9H18.877C18.877 46.8133 18.7601 45.7182 18.548 44.833C18.4419 44.3903 18.3175 44.023 18.1852 43.7445C18.0472 43.4537 17.9318 43.3256 17.8797 43.2844C17.4465 42.9418 17.373 42.313 17.7156 41.8797ZM36.1229 47.9V52.4C36.1229 53.0556 35.8636 54.005 35.3926 54.7981C34.9263 55.5833 34.071 56.5 32.7623 56.5H22.2377C20.929 56.5 20.0737 55.5833 19.6074 54.7981C19.1364 54.005 18.877 53.0556 18.877 52.4V47.9H20.877V52.4C20.877 52.6444 21.0112 53.245 21.327 53.7769C21.6476 54.3167 21.9726 54.5 22.2377 54.5H32.7623C33.0274 54.5 33.3524 54.3167 33.673 53.7769C33.9888 53.245 34.1229 52.6444 34.1229 52.4V47.9004L36.1229 47.9ZM36.1229 47.9C36.1229 46.8133 36.2399 45.7182 36.452 44.833C36.5581 44.3903 36.6825 44.023 36.8148 43.7445C36.9528 43.4537 37.0682 43.3256 37.1203 43.2844C37.5535 42.9418 37.627 42.313 37.2844 41.8797C36.9418 41.4465 36.313 41.373 35.8797 41.7156C35.4892 42.0244 35.2112 42.4588 35.008 42.8868C34.799 43.327 34.6346 43.8347 34.507 44.367C34.2519 45.4318 34.1229 46.6871 34.1229 47.9004L36.1229 47.9Z" fill="#000091"/>
</svg>
